<?xml version="1.0" encoding="UTF-8" standalone="no"?>
<svg width="220px" height="196px" viewBox="0 0 220 196" version="1.1" xmlns="http://www.w3.org/2000/svg" xmlns:xlink="http://www.w3.org/1999/xlink">
    <!-- Generator: Sketch 39.1 (31720) - http://www.bohemiancoding.com/sketch -->
    <title>burning-envelope</title>
    <desc>Created with Sketch.</desc>
    <defs>
        <linearGradient x1="50%" y1="100%" x2="50%" y2="0%" id="linearGradient-1">
            <stop stop-color="#FFFFFF" offset="0%"></stop>
            <stop stop-color="#FFFB00" offset="15.2503189%"></stop>
            <stop stop-color="#FF0000" offset="100%"></stop>
        </linearGradient>
    </defs>
    <g id="Page-1" stroke="none" stroke-width="1" fill="none" fill-rule="evenodd">
        <g id="envelope-copy-2" transform="translate(-70.000000, -23.000000)">
            <g id="burning-envelope" transform="translate(70.000000, 23.000000)">
                <rect id="outline" fill="#B3A594" transform="translate(109.174337, 97.095499) rotate(-330.000000) translate(-109.174337, -97.095499) " x="17.1743371" y="38.0954988" width="184" height="118" rx="2"></rect>
                <rect id="base" fill="#F0EFDD" transform="translate(109.174337, 97.095499) rotate(-330.000000) translate(-109.174337, -97.095499) " x="19.1743371" y="40.0954988" width="180" height="114"></rect>
                <polygon id="bottom-shadow" fill="#D8D2B8" transform="translate(100.174337, 112.683956) rotate(-330.000000) translate(-100.174337, -112.683956) " points="10.1743371 151.683956 190.174337 151.683956 100.174337 73.6839561"></polygon>
                <polygon id="bottom-flip" fill="#F4F4E1" transform="translate(99.174337, 114.416007) rotate(-330.000000) translate(-99.174337, -114.416007) " points="9.17433715 151.416007 189.174337 151.416007 99.1743371 77.4160069"></polygon>
                <path d="M28.1743371,42.5070416 L208.174337,42.5070416 L125.731463,113.957533 C121.557777,117.574727 114.796936,117.579961 110.617212,113.957533 L28.1743371,42.5070416 Z" id="top-shadow" fill="#D8D2B8" transform="translate(118.174337, 81.507042) rotate(-330.000000) translate(-118.174337, -81.507042) "></path>
                <path d="M30.1051451,43.0244 L210.105145,43.0244 L127.836885,110.667192 C123.566763,114.178181 116.64591,114.18014 112.373405,110.667192 L30.1051451,43.0244 Z" id="top-flip" fill="#F4F4E2" transform="translate(120.105145, 78.162784) rotate(-330.000000) translate(-120.105145, -78.162784) "></path>
                <path d="M46.1051451,47.3115871 L226.105145,47.3115871 L139.229285,53.691469 C137.50387,53.8181779 134.709522,53.8184057 132.981005,53.691469 L46.1051451,47.3115871 Z" id="highlight" fill="#FFFFFA" transform="translate(136.105145, 50.449971) rotate(-330.000000) translate(-136.105145, -50.449971) "></path>
                <path d="M105.106061,81.0291694 C105.106061,78.8203788 106.901019,77.0298002 109.105953,77.0298002 L186.10617,77.0298002 C188.315249,77.0298002 190.106061,78.8202484 190.106061,81.0291694 L190.106061,94.030431 C190.106061,96.2392216 188.311104,98.0298002 186.10617,98.0298002 L109.105953,98.0298002 C106.896874,98.0298002 105.106061,96.239352 105.106061,94.030431 L105.106061,81.0291694 Z M107.106061,81.0299064 C107.106061,79.9252783 108.001875,79.0298002 109.108319,79.0298002 L186.103803,79.0298002 C187.20962,79.0298002 188.106061,79.9198586 188.106061,81.0299064 L188.106061,94.029694 C188.106061,95.1343222 187.210247,96.0298002 186.103803,96.0298002 L109.108319,96.0298002 C108.002503,96.0298002 107.106061,95.1397418 107.106061,94.029694 L107.106061,81.0299064 Z M113.847272,93.0298002 L115.36485,93.0298002 L115.36485,84.409683 L118.092389,84.409683 L118.092389,83.0630033 L111.119733,83.0630033 L111.119733,84.409683 L113.847272,84.409683 L113.847272,93.0298002 Z M118.564069,88.0464018 C118.564069,89.1857304 118.598248,89.955905 118.666608,90.3569487 C118.703067,90.5711424 118.748639,90.748875 118.803327,90.8901518 C118.862572,91.0268712 118.928652,91.1704245 119.001569,91.3208158 C119.243107,91.7811046 119.630473,92.1866995 120.163678,92.5376127 C120.68777,92.9021979 121.341734,93.0936022 122.125592,93.1118315 C122.918565,93.0936022 123.579366,92.9021979 124.108014,92.5376127 C124.632105,92.1866995 125.010357,91.7811046 125.24278,91.3208158 C125.411401,91.0792782 125.52761,90.7579923 125.591413,90.3569487 C125.650658,89.955905 125.68028,89.1857304 125.68028,88.0464018 C125.68028,86.8888439 125.650658,86.1141121 125.591413,85.722183 C125.52761,85.330254 125.411401,85.0135254 125.24278,84.7719877 C125.010357,84.311699 124.632105,83.9015468 124.108014,83.541519 C123.579366,83.1769338 122.918565,82.9900867 122.125592,82.9809721 C121.341734,82.9900867 120.68777,83.1769338 120.163678,83.541519 C119.630473,83.9015468 119.243107,84.311699 119.001569,84.7719877 C118.851178,85.0135254 118.739525,85.330254 118.666608,85.722183 C118.598248,86.1141121 118.564069,86.8888439 118.564069,88.0464018 L118.564069,88.0464018 Z M120.081647,88.0464018 C120.081647,87.0665792 120.118105,86.3989426 120.191022,86.0434721 C120.254824,85.7062308 120.384706,85.4305174 120.580671,85.2163237 C120.740177,85.0112445 120.94981,84.8403478 121.209577,84.7036283 C121.464786,84.5714662 121.770122,84.5008289 122.125592,84.4917143 C122.48562,84.5008289 122.797792,84.5714662 123.062116,84.7036283 C123.312768,84.8403478 123.513287,85.0112445 123.663678,85.2163237 C123.859643,85.4305174 123.994082,85.7062308 124.066999,86.0434721 C124.135358,86.3989426 124.169538,87.0665792 124.169538,88.0464018 C124.169538,89.0262244 124.135358,89.6893037 124.066999,90.0356596 C123.994082,90.3820155 123.859643,90.6622861 123.663678,90.8764799 C123.513287,91.0815591 123.312768,91.2478985 123.062116,91.3755033 C122.797792,91.5258947 122.48562,91.6010893 122.125592,91.6010893 C121.770122,91.6010893 121.464786,91.5258947 121.209577,91.3755033 C120.94981,91.2478985 120.740177,91.0815591 120.580671,90.8764799 C120.384706,90.6622861 120.254824,90.3820155 120.191022,90.0356596 C120.118105,89.6893037 120.081647,89.0262244 120.081647,88.0464018 L120.081647,88.0464018 Z M128.954694,84.4917143 L131.135358,84.4917143 C131.545516,84.4825997 131.905539,84.5760232 132.215436,84.7719877 C132.420515,84.8904779 132.580019,85.0522601 132.693952,85.2573393 C132.803327,85.485205 132.858014,85.7654756 132.858014,86.0981596 C132.858014,86.4992033 132.723576,86.863783 132.454694,87.1919096 C132.17214,87.5291509 131.750595,87.7023262 131.190046,87.7114408 L128.954694,87.7114408 L128.954694,84.4917143 Z M127.443952,93.0298002 L128.954694,93.0298002 L128.954694,89.1401518 L131.251569,89.1401518 C132.276965,89.1219225 133.056254,88.7938008 133.58946,88.1557768 C134.108993,87.549654 134.368756,86.8774602 134.368756,86.1391752 C134.368756,85.5922975 134.266218,85.1183439 134.061139,84.7173002 C133.865175,84.3025846 133.609969,83.9835774 133.295514,83.760269 C132.921814,83.4640435 132.552678,83.2680819 132.188092,83.1723783 C131.823507,83.0994613 131.445256,83.0630033 131.053327,83.0630033 L127.443952,83.0630033 L127.443952,93.0298002 Z M139.222272,90.6098783 L138.231061,91.744644 C139.292915,92.6561069 140.562108,93.1118315 142.038678,93.1118315 C144.321893,93.0844876 145.488548,92.1183514 145.538678,90.213394 C145.538678,89.5070102 145.317652,88.8872248 144.875592,88.354019 C144.428976,87.8116985 143.738553,87.476741 142.804303,87.3491362 C142.330343,87.2898911 141.956648,87.2374827 141.68321,87.1919096 C141.19102,87.1007633 140.833276,86.9367024 140.609967,86.6997221 C140.386659,86.4672991 140.275006,86.207536 140.275006,85.9204252 C140.284121,85.4419072 140.450461,85.0818848 140.77403,84.8403471 C141.083927,84.6079241 141.471293,84.4917143 141.936139,84.4917143 C142.83393,84.5099435 143.656513,84.7651493 144.403913,85.2573393 L145.244733,84.0131987 C144.328713,83.3523881 143.250924,83.008316 142.011335,82.9809721 C140.981382,82.9900867 140.186142,83.2589642 139.625592,83.7876127 C139.046813,84.3208185 138.757428,85.0226344 138.757428,85.8930815 C138.757428,86.6176945 138.987569,87.2329227 139.447858,87.7387846 C139.894475,88.2309746 140.546161,88.5477032 141.402936,88.6889799 C141.881454,88.7573396 142.321228,88.8188624 142.722272,88.8735502 C143.597276,89.0239416 144.030215,89.4705517 144.0211,90.213394 C144.002871,91.1202995 143.346628,91.58286 142.05235,91.6010893 C140.958595,91.5919747 140.015245,91.2615743 139.222272,90.6098783 L139.222272,90.6098783 Z M147.131452,93.0298002 L153.49571,93.0298002 L153.49571,91.6010893 L148.642194,91.6010893 L148.642194,88.675308 L152.784772,88.675308 L152.784772,87.3354643 L148.642194,87.3354643 L148.642194,84.4917143 L153.49571,84.4917143 L153.49571,83.0630033 L147.131452,83.0630033 L147.131452,93.0298002 Z M160.037702,90.2407377 C159.618429,91.1476433 158.984972,91.6010893 158.137311,91.6010893 C157.781841,91.6010893 157.476505,91.5258947 157.221296,91.3755033 C156.961529,91.2478985 156.751895,91.0815591 156.592389,90.8764799 C156.396425,90.6622861 156.266543,90.3820155 156.202741,90.0356596 C156.129824,89.6893037 156.093366,89.0262244 156.093366,88.0464018 C156.093366,87.0665792 156.129824,86.3989426 156.202741,86.0434721 C156.266543,85.7062308 156.396425,85.4305174 156.592389,85.2163237 C156.751895,85.0112445 156.961529,84.8403478 157.221296,84.7036283 C157.476505,84.5714662 157.781841,84.5008289 158.137311,84.4917143 C158.620386,84.5008289 159.030539,84.6398249 159.36778,84.9087065 C159.691349,85.19126 159.914654,85.5330534 160.037702,85.9340971 L161.637311,85.9340971 C161.477805,85.1001085 161.094996,84.4005713 160.488874,83.8354643 C159.882751,83.2749146 159.098905,82.9900867 158.137311,82.9809721 C157.353453,82.9900867 156.699488,83.1769338 156.175397,83.541519 C155.642191,83.9015468 155.254825,84.311699 155.013288,84.7719877 C154.862896,85.0135254 154.751244,85.330254 154.678327,85.722183 C154.609967,86.1141121 154.575788,86.8888439 154.575788,88.0464018 C154.575788,89.1857304 154.609967,89.955905 154.678327,90.3569487 C154.714785,90.5711424 154.760358,90.748875 154.815046,90.8901518 C154.874291,91.0268712 154.940371,91.1704245 155.013288,91.3208158 C155.254825,91.7811046 155.642191,92.1866995 156.175397,92.5376127 C156.699488,92.9021979 157.353453,93.0936022 158.137311,93.1118315 C159.003201,93.1118315 159.752868,92.8657402 160.386335,92.3735502 C161.001572,91.8768029 161.41856,91.1658726 161.637311,90.2407377 L160.037702,90.2407377 Z M164.21446,84.409683 L166.579694,84.409683 C167.062769,84.409683 167.431906,84.5122211 167.687116,84.7173002 C168.010685,84.9497233 168.177025,85.3256961 168.186139,85.8452299 C168.186139,86.2781748 168.047143,86.6427545 167.769147,86.9389799 C167.486594,87.2579919 167.06277,87.4220528 166.497663,87.4311674 L164.21446,87.4311674 L164.21446,84.409683 Z M162.703717,93.0298002 L164.21446,93.0298002 L164.21446,88.7710112 L166.142194,88.7710112 L168.199811,93.0298002 L169.997663,93.0298002 L167.687116,88.6069487 C168.954049,88.119316 169.596621,87.1987523 169.61485,85.8452299 C169.587506,84.9246524 169.257106,84.2160006 168.623639,83.7192533 C168.099548,83.2817512 167.422797,83.0630033 166.593366,83.0630033 L162.703717,83.0630033 L162.703717,93.0298002 Z M171.241803,93.0298002 L177.606061,93.0298002 L177.606061,91.6010893 L172.752546,91.6010893 L172.752546,88.675308 L176.895124,88.675308 L176.895124,87.3354643 L172.752546,87.3354643 L172.752546,84.4917143 L177.606061,84.4917143 L177.606061,83.0630033 L171.241803,83.0630033 L171.241803,93.0298002 Z M180.716413,93.0298002 L182.233991,93.0298002 L182.233991,84.409683 L184.96153,84.409683 L184.96153,83.0630033 L177.988874,83.0630033 L177.988874,84.409683 L180.716413,84.409683 L180.716413,93.0298002 Z" id="text" fill="#D0011B" transform="translate(147.606061, 87.529800) rotate(-675.000000) translate(-147.606061, -87.529800) "></path>
                <path d="M150.999999,194 C137.068454,187.498613 145,178 131,166 C117,154 137,133 137,133 C137,133 131,157 147,153 C157.167757,150.458061 139.999999,125 144,104 C148.000001,83 157,81 157,81 C157,81 150.999998,96 156.999999,104 C163.000001,112 165.054239,118 173.02712,113 C181.000001,108 162.000001,81 177,64 C191.999999,47 181,37 181,37 C181,37 201.000001,46 194,69 C186.999999,92 199.999997,92 205,86 C210.000003,80 202,55 202,55 C202,55 219.000005,69 220,94 C220.999995,119 196.999999,117 203,125 C209.000001,133 217.000003,119 217.000003,119 C217.000003,119 219.000001,126 214.000001,133 C209.000001,140 194.999999,145 199,149 C203.000001,153 208.000001,144 208.000001,144 C208.000001,144 210.000001,155 199.000001,160 C188.000001,165 178.704314,160 176.999999,171 C175.295684,182 166.000001,201 150.999999,194 Z" id="big-flame" fill="url(#linearGradient-1)"></path>
                <path d="M153.249658,190 C139.318113,183.498613 141.303898,173 149.276779,168 C157.24966,163 138.24966,136 153.249659,119 C168.249658,102 157.249659,92 157.249659,92 C157.249659,92 177.24966,101 170.249659,124 C163.249658,147 176.249656,147 181.249659,141 C186.249661,135 178.249659,110 178.249659,110 C178.249659,110 195.249664,124 196.249659,149 C197.249654,174 168.24966,197 153.249658,190 Z" id="small-flame" fill="url(#linearGradient-1)"></path>
            </g>
        </g>
    </g>
</svg>