<?xml version="1.0" encoding="UTF-8" standalone="no"?>
<svg width="192px" height="121px" viewBox="0 0 192 121" version="1.1" xmlns="http://www.w3.org/2000/svg" xmlns:xlink="http://www.w3.org/1999/xlink">
  <title>Top Secret Envelope</title>
  <g id="envelope">
    <rect id="svg-shadow" fill="#eee" x="0" y="113" width="192" height="8" rx="4"></rect>
    <rect id="svg-outline" fill="#b3a594" x="4" y="0" width="184" height="118" rx="2"></rect>
    <rect id="svg-base" fill="#f0efdd" x="6" y="2" width="180" height="114"></rect>
    <path id="svg-bottom-shadow" fill="#d8d2b8" d="M6,116 L186,116 L96,38 L6,116 L6,116 Z"></path>
    <path id="svg-bottom-flip" fill="#f4f4e1" d="M6,116 L186,116 L96,42 L6,116 L6,116 Z"></path>
    <path id="svg-top-shadow" fill="#d8d2b8" d="M6,2 L186,2 L103.557125,73.4504913 C99.3834403,77.0676851 92.622599,77.0729191 88.4428745,73.4504913 L6,2 Z"></path>
    <path id="svg-top-flip" fill="#f4f4e2" d="M6,2 L186,2 L103.73174,69.6427916 C99.4616179,73.1537809 92.5407649,73.15574 88.2682601,69.6427916 L6,2 Z"></path>
    <path id="svg-highlight" fill="#fffffa" d="M6,2 L186,2 L99.1241399,8.37988195 C97.3987251,8.50659083 94.6043771,8.50681864 92.8758601,8.37988195 L6,2 Z"></path>
    <path id="svg-text" fill="#d0011b" fill-rule="evenodd" transform="translate(124, 32) rotate(-345) translate(-124, -31)" d="M82,24.9993692 C82,22.7905786 83.7949575,21 85.9998914,21 L163.000109,21 C165.209188,21 167,22.7904482 167,24.9993692 L167,38.0006308 C167,40.2094214 165.205043,42 163.000109,42 L85.9998914,42 C83.7908124,42 82,40.2095518 82,38.0006308 L82,24.9993692 Z M84,25.0001062 C84,23.895478 84.8958141,23 86.0022583,23 L162.997742,23 C164.103558,23 165,23.8900584 165,25.0001062 L165,37.9998938 C165,39.104522 164.104186,40 162.997742,40 L86.0022583,40 C84.8964416,40 84,39.1099416 84,37.9998938 L84,25.0001062 Z M90.7412109,37 L92.2587891,37 L92.2587891,28.3798828 L94.9863281,28.3798828 L94.9863281,27.0332031 L88.0136719,27.0332031 L88.0136719,28.3798828 L90.7412109,28.3798828 L90.7412109,37 Z M95.4580078,32.0166016 C95.4580078,33.1559302 95.4921872,33.9261048 95.5605469,34.3271484 C95.5970054,34.5413422 95.6425779,34.7190748 95.6972656,34.8603516 C95.7565107,34.997071 95.8225908,35.1406242 95.8955078,35.2910156 C96.1370455,35.7513044 96.5244114,36.1568993 97.0576172,36.5078125 C97.5817083,36.8723977 98.2356732,37.063802 99.0195313,37.0820312 C99.812504,37.063802 100.473305,36.8723977 101.001953,36.5078125 C101.526044,36.1568993 101.904296,35.7513044 102.136719,35.2910156 C102.305339,35.049478 102.421549,34.7281921 102.485352,34.3271484 C102.544597,33.9261048 102.574219,33.1559302 102.574219,32.0166016 C102.574219,30.8590437 102.544597,30.0843119 102.485352,29.6923828 C102.421549,29.3004538 102.305339,28.9837252 102.136719,28.7421875 C101.904296,28.2818987 101.526044,27.8717466 101.001953,27.5117187 C100.473305,27.1471336 99.812504,26.9602865 99.0195313,26.9511719 C98.2356732,26.9602865 97.5817083,27.1471336 97.0576172,27.5117187 C96.5244114,27.8717466 96.1370455,28.2818987 95.8955078,28.7421875 C95.7451164,28.9837252 95.6334639,29.3004538 95.5605469,29.6923828 C95.4921872,30.0843119 95.4580078,30.8590437 95.4580078,32.0166016 L95.4580078,32.0166016 Z M96.9755859,32.0166016 C96.9755859,31.036779 97.0120439,30.3691424 97.0849609,30.0136719 C97.1487633,29.6764306 97.2786449,29.4007172 97.4746094,29.1865234 C97.6341154,28.9814443 97.8437487,28.8105476 98.1035156,28.6738281 C98.3587252,28.541666 98.6640607,28.4710287 99.0195313,28.4619141 C99.3795591,28.4710287 99.6917304,28.541666 99.9560547,28.6738281 C100.206707,28.8105476 100.407226,28.9814443 100.557617,29.1865234 C100.753582,29.4007172 100.88802,29.6764306 100.960938,30.0136719 C101.029297,30.3691424 101.063477,31.036779 101.063477,32.0166016 C101.063477,32.9964242 101.029297,33.6595035 100.960938,34.0058594 C100.88802,34.3522153 100.753582,34.6324859 100.557617,34.8466797 C100.407226,35.0517588 100.206707,35.2180983 99.9560547,35.3457031 C99.6917304,35.4960945 99.3795591,35.5712891 99.0195313,35.5712891 C98.6640607,35.5712891 98.3587252,35.4960945 98.1035156,35.3457031 C97.8437487,35.2180983 97.6341154,35.0517588 97.4746094,34.8466797 C97.2786449,34.6324859 97.1487633,34.3522153 97.0849609,34.0058594 C97.0120439,33.6595035 96.9755859,32.9964242 96.9755859,32.0166016 L96.9755859,32.0166016 Z M105.848633,28.4619141 L108.029297,28.4619141 C108.439455,28.4527994 108.799478,28.546223 109.109375,28.7421875 C109.314454,28.8606777 109.473958,29.0224599 109.587891,29.2275391 C109.697266,29.4554048 109.751953,29.7356754 109.751953,30.0683594 C109.751953,30.469403 109.617514,30.8339827 109.348633,31.1621094 C109.066079,31.4993506 108.644534,31.672526 108.083984,31.6816406 L105.848633,31.6816406 L105.848633,28.4619141 Z M104.337891,37 L105.848633,37 L105.848633,33.1103516 L108.145508,33.1103516 C109.170904,33.0921223 109.950193,32.7640006 110.483398,32.1259766 C111.002932,31.5198537 111.262695,30.8476599 111.262695,30.109375 C111.262695,29.5624973 111.160157,29.0885437 110.955078,28.6875 C110.759114,28.2727844 110.503908,27.9537772 110.189453,27.7304687 C109.815753,27.4342433 109.446616,27.2382817 109.082031,27.1425781 C108.717446,27.0696611 108.339195,27.0332031 107.947266,27.0332031 L104.337891,27.0332031 L104.337891,37 Z M116.116211,34.5800781 L115.125,35.7148437 C116.186854,36.6263066 117.456047,37.0820312 118.932617,37.0820312 C121.215832,37.0546874 122.382487,36.0885512 122.432617,34.1835937 C122.432617,33.47721 122.211591,32.8574245 121.769531,32.3242187 C121.322914,31.7818983 120.632492,31.4469407 119.698242,31.3193359 C119.224281,31.2600908 118.850587,31.2076825 118.577148,31.1621094 C118.084958,31.0709631 117.727215,30.9069022 117.503906,30.6699219 C117.280598,30.4374988 117.168945,30.1777358 117.168945,29.890625 C117.17806,29.412107 117.344399,29.0520845 117.667969,28.8105469 C117.977866,28.5781238 118.365232,28.4619141 118.830078,28.4619141 C119.727869,28.4801433 120.550452,28.7353491 121.297852,29.2275391 L122.138672,27.9833984 C121.222652,27.3225878 120.144863,26.9785158 118.905273,26.9511719 C117.87532,26.9602865 117.080081,27.229164 116.519531,27.7578125 C115.940752,28.2910183 115.651367,28.9928342 115.651367,29.8632812 C115.651367,30.5878942 115.881508,31.2031225 116.341797,31.7089844 C116.788414,32.2011743 117.4401,32.5179029 118.296875,32.6591797 C118.775393,32.7275394 119.215167,32.7890622 119.616211,32.84375 C120.491215,32.9941414 120.924154,33.4407515 120.915039,34.1835937 C120.89681,35.0904993 120.240566,35.5530598 118.946289,35.5712891 C117.852534,35.5621744 116.909184,35.2317741 116.116211,34.5800781 L116.116211,34.5800781 Z M124.025391,37 L130.389648,37 L130.389648,35.5712891 L125.536133,35.5712891 L125.536133,32.6455078 L129.678711,32.6455078 L129.678711,31.3056641 L125.536133,31.3056641 L125.536133,28.4619141 L130.389648,28.4619141 L130.389648,27.0332031 L124.025391,27.0332031 L124.025391,37 Z M136.931641,34.2109375 C136.512368,35.1178431 135.87891,35.5712891 135.03125,35.5712891 C134.675779,35.5712891 134.370444,35.4960945 134.115234,35.3457031 C133.855467,35.2180983 133.645834,35.0517588 133.486328,34.8466797 C133.290364,34.6324859 133.160482,34.3522153 133.09668,34.0058594 C133.023763,33.6595035 132.987305,32.9964242 132.987305,32.0166016 C132.987305,31.036779 133.023763,30.3691424 133.09668,30.0136719 C133.160482,29.6764306 133.290364,29.4007172 133.486328,29.1865234 C133.645834,28.9814443 133.855467,28.8105476 134.115234,28.6738281 C134.370444,28.541666 134.675779,28.4710287 135.03125,28.4619141 C135.514325,28.4710287 135.924477,28.6100247 136.261719,28.8789062 C136.585288,29.1614597 136.808593,29.5032532 136.931641,29.9042969 L138.53125,29.9042969 C138.371744,29.0703083 137.988935,28.3707711 137.382813,27.8056641 C136.77669,27.2451144 135.992843,26.9602865 135.03125,26.9511719 C134.247392,26.9602865 133.593427,27.1471336 133.069336,27.5117187 C132.53613,27.8717466 132.148764,28.2818987 131.907227,28.7421875 C131.756835,28.9837252 131.645183,29.3004538 131.572266,29.6923828 C131.503906,30.0843119 131.469727,30.8590437 131.469727,32.0166016 C131.469727,33.1559302 131.503906,33.9261048 131.572266,34.3271484 C131.608724,34.5413422 131.654297,34.7190748 131.708984,34.8603516 C131.768229,34.997071 131.83431,35.1406242 131.907227,35.2910156 C132.148764,35.7513044 132.53613,36.1568993 133.069336,36.5078125 C133.593427,36.8723977 134.247392,37.063802 135.03125,37.0820312 C135.89714,37.0820312 136.646807,36.83594 137.280273,36.34375 C137.895511,35.8470027 138.312499,35.1360723 138.53125,34.2109375 L136.931641,34.2109375 Z M141.108398,28.3798828 L143.473633,28.3798828 C143.956708,28.3798828 144.325845,28.4824208 144.581055,28.6875 C144.904624,28.919923 145.070963,29.2958958 145.080078,29.8154297 C145.080078,30.2483746 144.941082,30.6129542 144.663086,30.9091797 C144.380532,31.2281917 143.956709,31.3922526 143.391602,31.4013672 L141.108398,31.4013672 L141.108398,28.3798828 Z M139.597656,37 L141.108398,37 L141.108398,32.7412109 L143.036133,32.7412109 L145.09375,37 L146.891602,37 L144.581055,32.5771484 C145.847988,32.0895158 146.49056,31.1689521 146.508789,29.8154297 C146.481445,28.8948522 146.151045,28.1862004 145.517578,27.6894531 C144.993487,27.2519509 144.316736,27.0332031 143.487305,27.0332031 L139.597656,27.0332031 L139.597656,37 Z M148.135742,37 L154.5,37 L154.5,35.5712891 L149.646484,35.5712891 L149.646484,32.6455078 L153.789063,32.6455078 L153.789063,31.3056641 L149.646484,31.3056641 L149.646484,28.4619141 L154.5,28.4619141 L154.5,27.0332031 L148.135742,27.0332031 L148.135742,37 Z M157.610352,37 L159.12793,37 L159.12793,28.3798828 L161.855469,28.3798828 L161.855469,27.0332031 L154.882813,27.0332031 L154.882813,28.3798828 L157.610352,28.3798828 L157.610352,37 Z"></path>
  </g>
</svg>
